<svg width="27" height="30" viewBox="0 0 27 30" fill="none" xmlns="http://www.w3.org/2000/svg">
<g id="Group 2087325652">
<g id="Vector">
<path fill-rule="evenodd" clip-rule="evenodd" d="M1.82938 6.85667C2.3853 6.58534 3.05469 6.62271 3.57259 6.95398L14.1141 13.6968C14.5922 14.0026 14.8728 14.5155 14.8594 15.0591C14.8183 16.7253 14.8181 19.9797 14.8286 22.8392C14.8338 24.2643 14.8416 25.584 14.8481 26.5475C14.8513 27.0292 14.8543 27.4218 14.8564 27.6938L14.8598 28.1167C14.8649 28.7182 14.5115 29.2721 13.9446 29.5506C13.3777 29.829 12.6927 29.7854 12.1708 29.4377L1.41161 22.2693C0.952718 21.9636 0.683774 21.4646 0.69285 20.9357L0.910491 8.25327C0.920598 7.66429 1.27345 7.12801 1.82938 6.85667ZM11.4306 25.0166C11.4269 24.3506 11.4234 23.6156 11.4206 22.8502C11.4117 20.4299 11.4103 17.6842 11.436 15.86L4.26712 11.2745L4.11494 20.1425L11.4306 25.0166Z" fill="white"/>
<path fill-rule="evenodd" clip-rule="evenodd" d="M25.4176 6.95671C24.8693 6.67613 24.2018 6.69997 23.6777 7.01884L12.2632 13.9634C11.766 14.2659 11.4715 14.7894 11.4852 15.3461C11.5262 17.0123 11.5264 20.1952 11.516 22.9825C11.5108 24.3715 11.503 25.6553 11.4965 26.5918C11.4932 27.06 11.4903 27.4414 11.4882 27.7056L11.4848 28.116C11.4796 28.7061 11.8196 29.2515 12.3698 29.5351C12.92 29.8187 13.5914 29.795 14.1174 29.4734L25.5319 22.4957C26.0155 22.2001 26.3073 21.6945 26.3073 21.152V8.36442C26.3073 7.77736 25.9659 7.23728 25.4176 6.95671ZM14.9136 25.1639C14.9175 24.5001 14.9211 23.7631 14.924 22.9937C14.9328 20.6466 14.9343 17.9779 14.909 16.1711L22.8992 11.3098V20.2823L14.9136 25.1639Z" fill="white"/>
<path fill-rule="evenodd" clip-rule="evenodd" d="M26.2597 7.9755C26.232 7.40746 25.8862 6.89579 25.3512 6.63094L14.5592 1.28893C14.0845 1.05398 13.5199 1.04292 13.0353 1.25909C11.3662 2.00356 8.63217 3.35747 6.34548 4.50914C5.19558 5.08828 4.14799 5.62176 3.38796 6.01042C3.00787 6.20478 2.69951 6.36302 2.48601 6.47276L2.15347 6.64392C2.15347 6.64392 2.15305 6.64413 2.97278 8.04911L2.15347 6.64392C1.64109 6.90834 1.30813 7.40149 1.27202 7.9501C1.23591 8.49872 1.50128 9.02646 1.97508 9.34829L12.1992 16.293C12.7699 16.6807 13.5353 16.6984 14.1256 16.3376L25.4862 9.39279C25.9931 9.08289 26.2875 8.54355 26.2597 7.9755ZM6.16481 8.24043C6.70821 7.96413 7.3155 7.65644 7.95437 7.33468C9.91432 6.34757 12.1404 5.24372 13.7343 4.50266L21.1928 8.19459L13.2477 13.0515L6.16481 8.24043Z" fill="white"/>
</g>
<path id="Vector 337" d="M12.7464 28.2263V14.9067L2.19922 8.63867V21.1748L12.7464 28.2263Z" fill="#FFF8F8" fill-opacity="0.3"/>
<path id="Vector 338" d="M24.0473 8.55024L13.5002 2.61156L3.90356 8.54998L13.5002 14.6655L24.0473 8.55024Z" fill="#FFF8F8" fill-opacity="0.5"/>
</g>
</svg>

