<svg width="16" height="16" viewBox="0 0 16 16" fill="none" xmlns="http://www.w3.org/2000/svg">
<g id="Icon/X">
<path id="Shape" d="M11.7996 3.32646C11.7996 3.19671 8.76111 7.02457 8.02384 7.80311C7.1668 8.70815 5.23918 10.0415 3.24097 13.0388C6.79743 10.9049 9.2549 6.54706 11.7996 3.32646Z" stroke="black" stroke-width="3" stroke-miterlimit="10" stroke-linecap="round" stroke-linejoin="round"/>
<path id="Shape_2" d="M9.18934 10.2375C8.33297 9.54625 3.44999 4.78278 3.35063 4.68184C3.25128 4.5809 3.16586 3.76128 3.35063 3.76564C3.5354 3.77 7.43153 7.38143 7.63249 7.76204C7.88369 8.2378 8.22323 8.7228 9.62924 10.0543C10.4078 10.7915 11.7188 12.0338 12.5543 13.1142C12.5543 13.1142 10.0457 10.9288 9.18934 10.2375Z" stroke="black" stroke-width="3" stroke-miterlimit="10" stroke-linecap="round" stroke-linejoin="round"/>
</g>
</svg>
