<svg width="24" height="24" viewBox="0 0 24 24" fill="none" xmlns="http://www.w3.org/2000/svg">
<path d="M12 3C16.9706 3 21 7.02944 21 12C21 16.9706 16.9706 21 12 21C7.02944 21 3 16.9706 3 12C3 7.02944 7.02944 3 12 3ZM9.80146 8.75789C9.50916 8.55539 9.10502 8.58432 8.84467 8.84467L8.75789 8.94854C8.55539 9.24084 8.58432 9.64498 8.84467 9.90533L10.9395 12L8.84467 14.0947L8.75789 14.1985C8.55539 14.4908 8.58432 14.895 8.84467 15.1553L8.94854 15.2421C9.24084 15.4446 9.64498 15.4157 9.90533 15.1553L12 13.0605L14.0947 15.1553L14.1985 15.2421C14.4908 15.4446 14.895 15.4157 15.1553 15.1553L15.2421 15.0515C15.4446 14.7592 15.4157 14.355 15.1553 14.0947L13.0605 12L15.1553 9.90533L15.2421 9.80146C15.4446 9.50916 15.4157 9.10502 15.1553 8.84467L15.0515 8.75789C14.7592 8.55539 14.355 8.58432 14.0947 8.84467L12 10.9395L9.90533 8.84467L9.80146 8.75789Z" fill="#263238"/>
</svg>
