<svg width="44" height="44" viewBox="0 0 44 44" fill="none" xmlns="http://www.w3.org/2000/svg">
<g id="Icon/Cross">
<g id="Union">
<path fill-rule="evenodd" clip-rule="evenodd" d="M32.8137 36.726C32.8138 36.726 32.8138 36.7261 33.6436 35.4765L32.8138 36.7261C33.3706 37.0958 34.1049 37.0525 34.6144 36.6199C35.1239 36.1874 35.2857 35.4699 35.0113 34.8605C33.676 31.8959 31.7115 29.8325 29.5402 27.7764C28.5965 26.8828 27.7295 26.0763 26.9374 25.3395L26.9374 25.3395C26.0928 24.5539 25.3335 23.8476 24.6573 23.1994C24.867 22.9776 25.0877 22.7426 25.3204 22.4932C27.5064 20.1513 29.8835 17.3535 31.7061 15.1519C32.6192 14.0489 33.3968 13.0911 33.9464 12.4086C34.2213 12.0674 34.4393 11.7948 34.5888 11.6072C34.6636 11.5134 34.7212 11.4408 34.7604 11.3915L34.805 11.3352L34.8165 11.3206L34.8195 11.3168L34.8204 11.3158L34.8206 11.3155C34.8207 11.3154 34.8207 11.3154 33.6438 10.3854L34.8207 11.3154C35.0299 11.0505 35.1438 10.7229 35.1438 10.3854C35.1438 10.0709 35.0334 9.51451 34.5001 9.13721C34.0485 8.81769 33.589 8.84852 33.4294 8.86727C33.109 8.90489 32.8596 9.03816 32.7907 9.07496L32.7856 9.07767C32.5799 9.18728 32.3599 9.34285 32.1728 9.48259C31.7708 9.78276 31.2408 10.2227 30.6701 10.7209C29.5243 11.7213 28.1143 13.0447 27.0598 14.1583C25.2525 16.0667 23.4481 17.8294 21.9419 19.1939C21.7991 19.3233 21.6601 19.448 21.525 19.5681C21.289 19.2884 21.0058 18.9677 20.6862 18.6177C19.9017 17.7589 18.8677 16.691 17.7068 15.5614C15.4006 13.3175 12.5169 10.7555 10.0462 9.10839C9.46244 8.71919 8.68685 8.78668 8.17906 9.27087C7.67126 9.75506 7.56696 10.5266 7.92795 11.1282C9.04452 12.9892 10.404 15.063 11.612 16.906L11.8685 17.2972C13.1714 19.2858 14.2014 20.8752 14.6069 21.6863C14.9203 22.3131 15.4281 22.9773 15.9735 23.6045C16.051 23.6937 16.1307 23.7836 16.2122 23.8741C15.4707 24.5713 14.6189 25.4073 13.7287 26.3222C11.4848 28.6284 8.92279 31.5121 7.27569 33.9828C6.88649 34.5666 6.95398 35.3422 7.43817 35.8499C7.92236 36.3577 8.69386 36.462 9.29551 36.1011C11.4405 34.814 13.402 32.8771 15.078 31.2179L15.1732 31.1236L15.1732 31.1236C15.9973 30.3076 16.7512 29.5611 17.4691 28.9272C18.2211 28.2632 18.8569 27.7928 19.3997 27.5214C19.5324 27.455 19.6611 27.39 19.7874 27.3247C20.6018 28.0392 21.3958 28.7023 22.0714 29.2477C23.3063 30.2445 26.0203 32.1308 28.3667 33.7307C29.5524 34.5392 30.6637 35.2878 31.4785 35.834C31.8859 36.1073 32.2194 36.33 32.4512 36.4846L32.7192 36.6631L32.7894 36.7099L32.8075 36.7219L32.8122 36.725L32.8134 36.7258L32.8137 36.726ZM22.3154 25.5466C22.8984 26.0472 23.4593 26.5126 23.9558 26.9134C24.3037 27.1943 24.7945 27.5627 25.3772 27.9858L24.9238 27.5638C24.0377 26.7392 23.2286 25.9863 22.5472 25.3325C22.4681 25.4066 22.3909 25.4779 22.3154 25.5466ZM19.2028 21.468C19.0053 21.2351 18.7597 20.957 18.4711 20.641C17.792 19.8975 16.8994 18.9715 15.8863 17.977C16.4979 18.9377 17.0013 19.7669 17.2902 20.3447C17.432 20.6282 17.7406 21.0647 18.2372 21.6359C18.317 21.7276 18.4 21.821 18.486 21.9158C18.5984 21.8381 18.7091 21.7684 18.8135 21.7133C18.9134 21.6605 19.0438 21.5785 19.2028 21.468Z" fill="#FF825A"/>
<path d="M34.4767 36.0296C34.7822 35.5696 34.6569 34.9489 34.1968 34.6434C33.7367 34.3379 33.116 34.4632 32.8105 34.9233L34.4767 36.0296ZM32.8137 36.726L33.3684 35.8939L33.3672 35.8932L32.8137 36.726ZM32.8138 36.7261L31.9808 36.1729C31.6752 36.633 31.8006 37.2536 32.2606 37.5591L32.8138 36.7261ZM34.6144 36.6199L35.2616 37.3823L34.6144 36.6199ZM35.0113 34.8605L35.9231 34.4498V34.4498L35.0113 34.8605ZM29.5402 27.7764L28.8526 28.5025L29.5402 27.7764ZM26.9374 25.3395L26.2303 26.0466C26.2388 26.0552 26.2475 26.0635 26.2563 26.0717L26.9374 25.3395ZM26.9374 25.3395L27.6445 24.6324C27.636 24.6239 27.6273 24.6155 27.6185 24.6073L26.9374 25.3395ZM24.6573 23.1994L23.9307 22.5123C23.553 22.9116 23.5685 23.5409 23.9653 23.9213L24.6573 23.1994ZM25.3204 22.4932L24.5894 21.8109L24.5894 21.8109L25.3204 22.4932ZM31.7061 15.1519L32.4764 15.7896L32.4764 15.7896L31.7061 15.1519ZM33.9464 12.4086L34.7253 13.0359L34.7253 13.0359L33.9464 12.4086ZM34.5888 11.6072L33.8068 10.9839V10.9839L34.5888 11.6072ZM34.7604 11.3915L35.5437 12.0131L35.544 12.0127L34.7604 11.3915ZM34.805 11.3352L35.5886 11.9564L35.5892 11.9558L34.805 11.3352ZM34.8165 11.3206L35.6007 11.9412L35.6009 11.941L34.8165 11.3206ZM34.8195 11.3168L35.6039 11.9372L35.604 11.937L34.8195 11.3168ZM34.8204 11.3158L35.6048 11.936L35.6049 11.9358L34.8204 11.3158ZM34.8206 11.3155L35.6052 11.9355L35.6091 11.9305L34.8206 11.3155ZM34.2637 9.60078C33.8304 9.25838 33.2015 9.3321 32.8591 9.76544C32.5167 10.1988 32.5905 10.8276 33.0238 11.17L34.2637 9.60078ZM34.8207 11.3154L34.2007 12.1C34.4088 12.2644 34.6737 12.3394 34.9371 12.3085C35.2006 12.2777 35.4409 12.1434 35.6053 11.9353L34.8207 11.3154ZM34.5001 9.13721L35.0777 8.32087L35.0777 8.32087L34.5001 9.13721ZM33.4294 8.86727L33.546 9.86045V9.86045L33.4294 8.86727ZM32.7907 9.07496L33.2616 9.95714L33.2619 9.95698L32.7907 9.07496ZM32.7856 9.07767L33.2557 9.96027L33.2565 9.95986L32.7856 9.07767ZM32.1728 9.48259L31.5745 8.68134L31.5745 8.68134L32.1728 9.48259ZM30.6701 10.7209L31.3278 11.4742L31.3278 11.4742L30.6701 10.7209ZM27.0598 14.1583L27.7859 14.8459L27.0598 14.1583ZM21.9419 19.1939L21.2705 18.4528L21.2705 18.4528L21.9419 19.1939ZM21.525 19.5681L20.7607 20.2129C20.9346 20.4191 21.1844 20.5462 21.4534 20.5655C21.7224 20.5849 21.9879 20.4947 22.1894 20.3155L21.525 19.5681ZM20.6862 18.6177L21.4245 17.9433L20.6862 18.6177ZM17.7068 15.5614L18.4042 14.8447L17.7068 15.5614ZM10.0462 9.10839L10.6009 8.27634L10.6009 8.27634L10.0462 9.10839ZM8.17906 9.27087L8.86914 9.9946L8.86914 9.9946L8.17906 9.27087ZM7.92795 11.1282L7.07045 11.6427L7.07045 11.6427L7.92795 11.1282ZM11.612 16.906L12.4484 16.3578L12.4484 16.3577L11.612 16.906ZM11.8685 17.2972L12.7049 16.7491L12.7048 16.749L11.8685 17.2972ZM14.6069 21.6863L13.7125 22.1335L13.7125 22.1335L14.6069 21.6863ZM15.9735 23.6045L16.7281 22.9483L16.728 22.9483L15.9735 23.6045ZM16.2122 23.8741L16.8972 24.6026C17.2934 24.23 17.3192 23.6091 16.9553 23.205L16.2122 23.8741ZM13.7287 26.3222L13.012 25.6248L13.012 25.6248L13.7287 26.3222ZM7.27569 33.9828L8.10774 34.5375H8.10774L7.27569 33.9828ZM7.43817 35.8499L6.71444 36.54H6.71444L7.43817 35.8499ZM9.29551 36.1011L8.78101 35.2436L9.29551 36.1011ZM15.078 31.2179L15.7815 31.9285L15.7815 31.9285L15.078 31.2179ZM15.1732 31.1236L15.8768 31.8342L15.8803 31.8307L15.1732 31.1236ZM15.1732 31.1236L14.4696 30.413L14.4661 30.4164L15.1732 31.1236ZM17.4691 28.9272L16.8072 28.1776H16.8072L17.4691 28.9272ZM19.3997 27.5214L19.8469 28.4158L19.8469 28.4158L19.3997 27.5214ZM19.7874 27.3247L20.4469 26.573C20.1374 26.3015 19.6932 26.2474 19.3277 26.4366L19.7874 27.3247ZM22.0714 29.2477L21.4433 30.0258H21.4433L22.0714 29.2477ZM28.3667 33.7307L28.9301 32.9045L28.3667 33.7307ZM31.4785 35.834L30.9216 36.6646L31.4785 35.834ZM32.4512 36.4846L31.8964 37.3166L31.8968 37.3168L32.4512 36.4846ZM32.7192 36.6631L32.1647 37.4953L32.1654 37.4958L32.7192 36.6631ZM32.7894 36.7099L32.2357 37.5425L32.2359 37.5427L32.7894 36.7099ZM32.8075 36.7219L32.254 37.5547L32.2543 37.5549L32.8075 36.7219ZM32.8122 36.725L33.3657 35.8921L33.3655 35.892L32.8122 36.725ZM32.8134 36.7258L33.3669 35.8929L33.3669 35.8929L32.8134 36.7258ZM22.3154 25.5466L21.6425 24.8068C21.4305 24.9997 21.3114 25.2742 21.3155 25.5608C21.3196 25.8474 21.4464 26.1184 21.6639 26.3052L22.3154 25.5466ZM23.9558 26.9134L23.3277 27.6915L23.3277 27.6915L23.9558 26.9134ZM25.3772 27.9858L24.7896 28.795C25.2174 29.1056 25.8131 29.0296 26.1492 28.6214C26.4853 28.2133 26.4455 27.614 26.0585 27.2538L25.3772 27.9858ZM24.9238 27.5638L25.6052 26.8318L25.6051 26.8318L24.9238 27.5638ZM22.5472 25.3325L23.2396 24.6109C22.8561 24.2429 22.2517 24.2392 21.8637 24.6026L22.5472 25.3325ZM19.2028 21.468L19.7735 22.2892C20.005 22.1283 20.1578 21.8773 20.1944 21.5978C20.2309 21.3183 20.1478 21.0364 19.9656 20.8214L19.2028 21.468ZM18.4711 20.641L19.2095 19.9666H19.2095L18.4711 20.641ZM15.8863 17.977L16.5869 17.2634C16.2241 16.9073 15.6519 16.88 15.2569 17.2C14.8619 17.5199 14.7698 18.0853 15.0428 18.5141L15.8863 17.977ZM17.2902 20.3447L18.1846 19.8975L18.1846 19.8975L17.2902 20.3447ZM18.2372 21.6359L17.4826 22.2921L17.4826 22.2921L18.2372 21.6359ZM18.486 21.9158L17.7451 22.5875C18.082 22.9591 18.6422 23.0237 19.0548 22.7383L18.486 21.9158ZM18.8135 21.7133L18.3466 20.829L18.3466 20.829L18.8135 21.7133ZM32.8105 34.9233C32.3956 35.5481 32.1882 35.8604 32.0845 36.0165C32.0326 36.0947 32.0069 36.1334 31.9941 36.1526C31.9875 36.1626 31.985 36.1663 31.9843 36.1673C31.983 36.1692 31.9859 36.165 31.9896 36.1596C31.9908 36.1578 31.9933 36.1542 31.9966 36.1495C31.9988 36.1464 32.0069 36.1349 32.0177 36.1206C32.0231 36.1135 32.0342 36.0991 32.0491 36.0815C32.0595 36.0691 32.0947 36.0275 32.1465 35.9811C32.1732 35.9571 32.2223 35.9157 32.2904 35.8738C32.3572 35.8328 32.4762 35.7703 32.6384 35.7415C32.821 35.7089 33.0009 35.7291 33.1602 35.7879C33.2883 35.8352 33.3835 35.904 33.3684 35.8939L32.259 37.558C32.2439 37.548 32.3391 37.6167 32.4672 37.664C32.6264 37.7228 32.8064 37.743 32.989 37.7105C33.282 37.6583 33.4599 37.4896 33.4809 37.4708C33.5328 37.4244 33.5679 37.3828 33.5783 37.3704C33.5932 37.3528 33.6043 37.3383 33.6097 37.3313C33.6206 37.3169 33.6288 37.3054 33.631 37.3022C33.6343 37.2975 33.637 37.2937 33.6382 37.2918C33.6424 37.2858 33.646 37.2803 33.6464 37.2798C33.6489 37.276 33.653 37.2699 33.6593 37.2603C33.6725 37.2405 33.6987 37.2012 33.7505 37.1231C33.8543 36.9669 34.0618 36.6544 34.4767 36.0296L32.8105 34.9233ZM33.6469 37.2792L34.4767 36.0296L32.8105 34.9233L31.9808 36.1729L33.6469 37.2792ZM33.9672 35.8576C33.7974 36.0018 33.5526 36.0162 33.367 35.893L32.2606 37.5591C33.1886 38.1753 34.4124 38.1032 35.2616 37.3823L33.9672 35.8576ZM34.0995 35.2711C34.191 35.4743 34.137 35.7134 33.9672 35.8576L35.2616 37.3823C36.1108 36.6613 36.3805 35.4655 35.9231 34.4498L34.0995 35.2711ZM28.8526 28.5025C31.0035 30.5393 32.8479 32.4922 34.0995 35.2711L35.9231 34.4498C34.5042 31.2996 32.4194 29.1257 30.2278 27.0503L28.8526 28.5025ZM26.2563 26.0717C27.0487 26.8087 27.9126 27.6123 28.8526 28.5025L30.2278 27.0503C29.2804 26.1532 28.4103 25.3438 27.6185 24.6073L26.2563 26.0717ZM26.2303 26.0466L26.2303 26.0466L27.6445 24.6324L27.6445 24.6324L26.2303 26.0466ZM23.9653 23.9213C24.648 24.5758 25.4132 25.2875 26.2563 26.0717L27.6185 24.6073C26.7724 23.8204 26.019 23.1195 25.3493 22.4775L23.9653 23.9213ZM24.5894 21.8109C24.3579 22.0589 24.1387 22.2924 23.9307 22.5123L25.3838 23.8865C25.5953 23.6629 25.8175 23.4263 26.0515 23.1756L24.5894 21.8109ZM30.9358 14.5142C29.1176 16.7106 26.7552 19.4905 24.5894 21.8109L26.0515 23.1756C28.2576 20.812 30.6494 17.9965 32.4764 15.7896L30.9358 14.5142ZM33.1676 11.7814C32.6202 12.4611 31.8455 13.4153 30.9358 14.5142L32.4764 15.7896C33.3929 14.6825 34.1734 13.7211 34.7253 13.0359L33.1676 11.7814ZM33.8068 10.9839C33.6582 11.1703 33.4413 11.4415 33.1676 11.7814L34.7253 13.0359C35.0013 12.6932 35.2203 12.4193 35.3708 12.2305L33.8068 10.9839ZM33.977 10.7699C33.9383 10.8187 33.8811 10.8907 33.8068 10.9839L35.3708 12.2305C35.446 12.1361 35.5042 12.0629 35.5437 12.0131L33.977 10.7699ZM34.0213 10.714L33.9767 10.7703L35.544 12.0127L35.5886 11.9564L34.0213 10.714ZM34.0323 10.7001L34.0208 10.7147L35.5892 11.9558L35.6007 11.9412L34.0323 10.7001ZM34.0352 10.6965L34.0322 10.7003L35.6009 11.941L35.6039 11.9372L34.0352 10.6965ZM34.0359 10.6956L34.0351 10.6967L35.604 11.937L35.6048 11.936L34.0359 10.6956ZM34.036 10.6955L34.0358 10.6958L35.6049 11.9358L35.6052 11.9355L34.036 10.6955ZM33.0238 11.17C33.6123 11.635 33.9064 11.8675 34.0535 11.9837C34.1271 12.0418 34.1635 12.0707 34.1815 12.0849C34.186 12.0885 34.1892 12.091 34.1915 12.0928C34.1926 12.0937 34.1935 12.0944 34.1941 12.0949C34.1944 12.0951 34.1946 12.0953 34.1948 12.0954C34.1948 12.0955 34.1949 12.0955 34.1949 12.0956C34.195 12.0956 34.195 12.0956 34.195 12.0956C34.195 12.0956 34.195 12.0956 34.1949 12.0956C34.1949 12.0955 34.1948 12.0955 34.1947 12.0954C34.1945 12.0952 34.1941 12.0949 34.1936 12.0945C34.1931 12.0941 34.1902 12.0918 34.1864 12.0887C34.1846 12.0872 34.1807 12.0839 34.1757 12.0798C34.1724 12.077 34.1603 12.0668 34.1453 12.053C34.1379 12.0462 34.1228 12.0323 34.1047 12.0137C34.0918 12.0004 34.0496 11.957 34.0049 11.8939C33.9798 11.8585 33.8328 11.6572 33.8213 11.3531C33.8063 10.9558 34.0349 10.6969 34.0321 10.7005L35.6091 11.9305C35.6063 11.9341 35.8349 11.6752 35.8199 11.2778C35.8084 10.9738 35.6614 10.7725 35.6363 10.7371C35.5916 10.674 35.5494 10.6305 35.5364 10.6172C35.5183 10.5987 35.5033 10.5847 35.4958 10.5779C35.4808 10.5641 35.4686 10.5538 35.4653 10.551C35.4602 10.5468 35.4562 10.5435 35.4542 10.5418C35.4478 10.5366 35.4421 10.532 35.4416 10.5317C35.4378 10.5287 35.432 10.524 35.423 10.5169C35.4042 10.502 35.3672 10.4727 35.2937 10.4146C35.1465 10.2983 34.8522 10.0657 34.2637 9.60078L33.0238 11.17ZM35.4407 10.5307L34.2637 9.60078L33.0238 11.17L34.2007 12.1L35.4407 10.5307ZM34.1438 10.3854C34.1438 10.4979 34.1058 10.6071 34.0361 10.6954L35.6053 11.9353C35.9541 11.494 36.1438 10.9479 36.1438 10.3854H34.1438ZM33.9225 9.95355C34.0182 10.0212 34.0684 10.0967 34.0992 10.1704C34.1338 10.2531 34.1438 10.336 34.1438 10.3854H36.1438C36.1438 9.87858 35.968 8.95081 35.0777 8.32087L33.9225 9.95355ZM33.546 9.86045C33.6106 9.85286 33.7689 9.84487 33.9225 9.95355L35.0777 8.32087C34.3281 7.7905 33.5675 7.84418 33.3127 7.8741L33.546 9.86045ZM33.2619 9.95698C33.2849 9.94473 33.3214 9.92525 33.3742 9.90499C33.4294 9.88377 33.4892 9.86712 33.546 9.86045L33.3127 7.8741C32.7978 7.93458 32.411 8.14404 32.3195 8.19293L33.2619 9.95698ZM33.2565 9.95986L33.2616 9.95714L32.3198 8.19277L32.3147 8.19549L33.2565 9.95986ZM32.7711 10.2838C32.9517 10.149 33.1209 10.0321 33.2557 9.96027L32.3155 8.19508C32.0388 8.34246 31.7682 8.53667 31.5745 8.68134L32.7711 10.2838ZM31.3278 11.4742C31.8914 10.9821 32.3993 10.5615 32.7711 10.2838L31.5745 8.68134C31.1424 9.00401 30.5902 9.46322 30.0125 9.96756L31.3278 11.4742ZM27.7859 14.8459C28.8132 13.761 30.199 12.4597 31.3278 11.4742L30.0125 9.96756C28.8495 10.9829 27.4153 12.3285 26.3337 13.4707L27.7859 14.8459ZM22.6133 19.935C24.1404 18.5516 25.963 16.7709 27.7859 14.8459L26.3337 13.4707C24.5421 15.3626 22.7559 17.1072 21.2705 18.4528L22.6133 19.935ZM22.1894 20.3155C22.3269 20.1933 22.4682 20.0664 22.6133 19.935L21.2705 18.4528C21.13 18.5801 20.9933 18.7028 20.8606 18.8208L22.1894 20.3155ZM19.9478 19.2921C20.2612 19.6353 20.5353 19.9458 20.7607 20.2129L22.2894 18.9233C22.0427 18.6309 21.7504 18.3001 21.4245 17.9433L19.9478 19.2921ZM17.0094 16.2782C18.1584 17.3961 19.1784 18.4498 19.9478 19.2921L21.4245 17.9433C20.6249 17.0679 19.577 15.9859 18.4042 14.8447L17.0094 16.2782ZM9.49154 9.94044C11.8851 11.5362 14.7168 14.0474 17.0094 16.2782L18.4042 14.8447C16.0844 12.5876 13.1486 9.97481 10.6009 8.27634L9.49154 9.94044ZM8.86914 9.9946C9.03841 9.8332 9.29694 9.81071 9.49154 9.94044L10.6009 8.27634C9.62794 7.62768 8.33529 7.74016 7.48897 8.54714L8.86914 9.9946ZM8.78544 10.6137C8.66511 10.4132 8.69988 10.156 8.86914 9.9946L7.48897 8.54714C6.64265 9.35412 6.46881 10.64 7.07045 11.6427L8.78544 10.6137ZM12.4484 16.3577C11.2377 14.5108 9.88983 12.4544 8.78544 10.6137L7.07045 11.6427C8.19921 13.524 9.57023 15.6152 10.7757 17.4542L12.4484 16.3577ZM12.7048 16.749L12.4484 16.3578L10.7757 17.4541L11.0321 17.8454L12.7048 16.749ZM15.5013 21.2391C15.0627 20.3617 13.9891 18.7091 12.7049 16.7491L11.032 17.8453C12.3538 19.8625 13.3401 21.3888 13.7125 22.1335L15.5013 21.2391ZM16.728 22.9483C16.1992 22.3401 15.7576 21.7517 15.5013 21.2391L13.7125 22.1335C14.083 22.8745 14.6569 23.6145 15.2189 24.2607L16.728 22.9483ZM16.9553 23.205C16.8774 23.1185 16.8016 23.0329 16.7281 22.9483L15.2189 24.2607C15.3005 24.3545 15.3839 24.4487 15.469 24.5433L16.9553 23.205ZM14.4455 27.0196C15.326 26.1146 16.1673 25.289 16.8972 24.6026L15.5271 23.1456C14.7741 23.8537 13.9117 24.7001 13.012 25.6248L14.4455 27.0196ZM8.10774 34.5375C9.70346 32.1439 12.2147 29.3122 14.4455 27.0196L13.012 25.6248C10.7549 27.9446 8.14211 30.8804 6.44364 33.4281L8.10774 34.5375ZM8.1619 35.1599C8.0005 34.9906 7.978 34.7321 8.10774 34.5375L6.44364 33.4281C5.79497 34.4011 5.90746 35.6937 6.71444 36.54L8.1619 35.1599ZM8.78101 35.2436C8.58046 35.3639 8.32329 35.3291 8.1619 35.1599L6.71444 36.54C7.52142 37.3863 8.80726 37.5602 9.81 36.9585L8.78101 35.2436ZM14.3744 30.5072C12.6816 32.1832 10.8046 34.0294 8.78101 35.2436L9.81 36.9585C12.0765 35.5986 14.1225 33.571 15.7815 31.9285L14.3744 30.5072ZM14.4696 30.413L14.3744 30.5073L15.7815 31.9285L15.8767 31.8342L14.4696 30.413ZM14.4661 30.4164L14.4661 30.4165L15.8803 31.8307L15.8803 31.8307L14.4661 30.4164ZM16.8072 28.1776C16.0637 28.8342 15.2883 29.6024 14.4696 30.413L15.8768 31.8342C16.7062 31.0129 17.4387 30.2881 18.131 29.6767L16.8072 28.1776ZM18.9525 26.6269C18.2933 26.9565 17.5806 27.4947 16.8072 28.1776L18.131 29.6767C18.8616 29.0317 19.4205 28.629 19.8469 28.4158L18.9525 26.6269ZM19.3277 26.4366C19.2074 26.4989 19.0834 26.5615 18.9524 26.627L19.8469 28.4158C19.9815 28.3485 20.1149 28.2812 20.2471 28.2128L19.3277 26.4366ZM22.6996 28.4696C22.0336 27.9321 21.2501 27.2777 20.4469 26.573L19.1279 28.0764C19.9534 28.8006 20.7579 29.4726 21.4433 30.0258L22.6996 28.4696ZM28.9301 32.9045C26.5726 31.2971 23.8962 29.4356 22.6996 28.4696L21.4433 30.0258C22.7163 31.0535 25.468 32.9646 27.8033 34.5569L28.9301 32.9045ZM32.0354 35.0035C31.2221 34.4582 30.113 33.7111 28.9301 32.9045L27.8033 34.5569C28.9918 35.3673 30.1054 36.1174 30.9216 36.6646L32.0354 35.0035ZM33.006 35.6526C32.7748 35.4985 32.4421 35.2762 32.0354 35.0035L30.9216 36.6646C31.3298 36.9383 31.664 37.1616 31.8964 37.3166L33.006 35.6526ZM33.2736 35.8309L33.0056 35.6524L31.8968 37.3168L32.1647 37.4953L33.2736 35.8309ZM33.3432 35.8772L33.2729 35.8304L32.1654 37.4958L32.2357 37.5425L33.3432 35.8772ZM33.361 35.889L33.3429 35.877L32.2359 37.5427L32.254 37.5547L33.361 35.889ZM33.3655 35.892L33.3608 35.8889L32.2543 37.5549L32.2589 37.558L33.3655 35.892ZM33.3669 35.8929L33.3657 35.8921L32.2587 37.5578L32.2599 37.5586L33.3669 35.8929ZM33.3672 35.8932L33.3669 35.8929L32.2598 37.5586L32.2601 37.5588L33.3672 35.8932ZM21.6639 26.3052C22.2548 26.8127 22.8235 27.2845 23.3277 27.6915L24.5839 26.1353C24.0951 25.7407 23.542 25.2818 22.967 24.7879L21.6639 26.3052ZM23.3277 27.6915C23.6958 27.9887 24.203 28.369 24.7896 28.795L25.9648 27.1766C25.3861 26.7564 24.9117 26.3999 24.5839 26.1353L23.3277 27.6915ZM26.0585 27.2538L25.6052 26.8318L24.2425 28.2958L24.6959 28.7178L26.0585 27.2538ZM25.6051 26.8318C24.7172 26.0055 23.9143 25.2583 23.2396 24.6109L21.8549 26.054C22.5429 26.7142 23.3582 27.4729 24.2426 28.2959L25.6051 26.8318ZM21.8637 24.6026C21.7878 24.6736 21.7142 24.7416 21.6425 24.8068L22.9883 26.2863C23.0676 26.2142 23.1483 26.1396 23.2308 26.0624L21.8637 24.6026ZM19.9656 20.8214C19.7582 20.5768 19.5042 20.2892 19.2095 19.9666L17.7328 21.3154C18.0153 21.6248 18.2524 21.8934 18.44 22.1147L19.9656 20.8214ZM19.2095 19.9666C18.5163 19.2077 17.6108 18.2686 16.5869 17.2634L15.1858 18.6907C16.1879 19.6744 17.0677 20.5873 17.7328 21.3154L19.2095 19.9666ZM15.0428 18.5141C15.6557 19.4767 16.1328 20.266 16.3958 20.7919L18.1846 19.8975C17.8698 19.2678 17.3402 18.3986 16.7299 17.44L15.0428 18.5141ZM16.3958 20.7919C16.5949 21.1902 16.9702 21.7027 17.4826 22.2921L18.9918 20.9797C18.511 20.4267 18.269 20.0663 18.1846 19.8975L16.3958 20.7919ZM17.4826 22.2921C17.5673 22.3894 17.6548 22.4879 17.7451 22.5875L19.2269 21.2442C19.1451 21.154 19.0667 21.0658 18.9918 20.9797L17.4826 22.2921ZM19.0548 22.7383C19.147 22.6745 19.2225 22.6282 19.2804 22.5976L18.3466 20.829C18.1957 20.9086 18.0497 21.0017 17.9172 21.0934L19.0548 22.7383ZM19.2804 22.5976C19.4319 22.5176 19.6001 22.4097 19.7735 22.2892L18.6321 20.6469C18.4876 20.7473 18.3949 20.8035 18.3466 20.829L19.2804 22.5976Z" fill="#FF825A"/>
</g>
</g>
</svg>
