<svg width="42" height="28" viewBox="0 0 42 28" fill="none" xmlns="http://www.w3.org/2000/svg">
<path d="M32.726 19.9455C29.672 20.1853 26.6523 20.6028 21.6738 20.6028C17.1035 20.6028 9.27246 19.9455 9.27246 19.9455C9.27246 19.9455 14.2006 19.3965 19.7967 19.3965C22.1635 19.3965 29.7537 19.6749 32.726 19.9455Z" stroke="black" stroke-width="3" stroke-miterlimit="10" stroke-linecap="round" stroke-linejoin="round"/>
<path d="M8.5 20L8 5L14.707 11L21.5 5L28 11L34.5 4L33.5 19.5L8.5 20Z" fill="#FDFB98" stroke="black"/>
<path d="M8.27756 4.33159C9.28008 4.33159 13.9682 10.4836 14.3887 11.3716L14.3887 11.6649C13.0514 11.8331 8.44422 4.97692 7.99978 5.21159" stroke="black" stroke-width="3" stroke-miterlimit="10" stroke-linecap="round" stroke-linejoin="round"/>
<path d="M7.43809 4C7.43809 5.00416 7.08937 5.91026 7.00658 8.42356M7.00658 8.42356C6.92379 10.9369 7.64275 18.5619 8 20L7.00658 8.42356Z" stroke="black" stroke-width="3" stroke-miterlimit="10" stroke-linecap="round" stroke-linejoin="round"/>
<path d="M33.7224 4.33159C32.7199 4.33159 28.0318 10.4836 27.6113 11.3716L27.6113 11.6649C28.9486 11.8331 33.5558 4.97692 34.0002 5.21159" stroke="black" stroke-width="3" stroke-miterlimit="10" stroke-linecap="round" stroke-linejoin="round"/>
<path d="M34.5619 4C34.5619 5.00416 34.9106 5.91026 34.9934 8.42356M34.9934 8.42356C35.0762 10.9369 34.3572 18.5619 34 20L34.9934 8.42356Z" stroke="black" stroke-width="3" stroke-miterlimit="10" stroke-linecap="round" stroke-linejoin="round"/>
<path d="M18.2221 6.72C19.6169 5.22567 20.8797 4.66667 20.9998 4.66667C21.1808 4.66667 22.5037 5.60455 24.3332 7.6C25.3127 8.66835 27.3887 11.12 27.6665 11.7067L27.6665 12C25.8147 9.84889 22.1109 5.09867 21.6665 5.33333C21.1109 5.62667 19.5546 7.02483 17.9998 8.66667C17.4443 9.25333 14.6109 11.5852 14.6109 12C14.6109 12 14.3332 11.8044 14.3332 11.7067C14.3332 11.7067 16.3913 8.68137 18.2221 6.72Z" stroke="black" stroke-width="3" stroke-miterlimit="10" stroke-linecap="round" stroke-linejoin="round"/>
</svg>
