<svg width="60" height="69" viewBox="0 0 60 69" fill="none" xmlns="http://www.w3.org/2000/svg">
<g id="Group 2087325650">
<path id="Vector 27" d="M30.6549 10.6895C59.5795 10.6895 59.9312 39.7443 56.5548 48.2612C52.4901 58.5141 42.8489 66.6895 30.6549 66.6895C30.4344 66.6895 30.2116 66.6853 29.9866 66.6771M29.9866 66.6771C13.3223 66.0671 1.99881 53.2299 2 40.509C2.0007 33.0069 5.0402 24.5606 10.8151 22.8101C6.5441 26.3175 3.70455 30.8022 3.70455 40.509C3.70455 56.0688 16.4825 66.6771 29.9866 66.6771Z" stroke="white" stroke-width="3" stroke-miterlimit="10" stroke-linecap="round" stroke-linejoin="round"/>
<path id="Shape" d="M29.1116 14.7616C26.9474 12.7591 26.1379 10.9461 26.1379 10.7736C26.1379 10.5139 26.2217 11.072 29.1116 8.44553C30.6588 7.0393 35.4839 2.3988 36.3335 2L36.7583 2.00001C33.643 4.65868 27.0725 10.5343 27.4123 11.1724C27.8371 11.97 29.6867 12.9533 32.0644 15.1854C32.9141 15.983 36.1578 19.3531 36.7585 19.3531C36.7585 19.3531 36.4751 20.3448 36.3335 20.3448C36.3335 20.3448 31.9521 17.39 29.1116 14.7616Z" stroke="white" stroke-width="3" stroke-miterlimit="10" stroke-linecap="round" stroke-linejoin="round"/>
</g>
</svg>
