<?xml version="1.0" encoding="UTF-8" standalone="no" ?>
<!DOCTYPE svg PUBLIC "-//W3C//DTD SVG 1.1//EN" "http://www.w3.org/Graphics/SVG/1.1/DTD/svg11.dtd">
<svg xmlns="http://www.w3.org/2000/svg" xmlns:xlink="http://www.w3.org/1999/xlink" version="1.1" width="28" height="28" viewBox="0 0 28 28" xml:space="preserve">
<desc>Created with Fabric.js 5.3.0</desc>
<defs>
</defs>
<g transform="matrix(1 0 0 1 7.7999932367 14)" id="hNT6sMRA6d8FC-wJQeRIY"  >
<path style="stroke: rgb(0,0,0); stroke-width: 2; stroke-dasharray: none; stroke-linecap: round; stroke-dashoffset: 0; stroke-linejoin: round; stroke-miterlimit: 10; fill: none; fill-rule: nonzero; opacity: 1;"  transform=" translate(-6.5295932367, -13.9999433698)" d="M 1.94423 11.2569 L 5.23012 10.6156 C 5.23012 10.6156 8.56064 5.24435 9.31692 5.27159 C 9.97461 6.20147 11.7296 9.75459 11.7296 13.6108 C 11.7296 18.6316 10.2622 21.6443 9.31692 22.7284 C 7.63949 22.7187 5.87103 18.6316 5.87103 18.6316 L 1.94423 17.8834 M 1.94423 11.2569 C 1.14505 11.4128 1.10461 17.0855 1.94423 17.8834 M 1.94423 11.2569 C 1.65908 12.2422 1.94423 13.0041 1.94423 14.6393 C 1.94423 15.9474 1.94423 17.1323 1.94423 17.8834" stroke-linecap="round" />
</g>
<g transform="matrix(1 0 0 1 21.3584362004 14)" id="4LSeAWYwLq_hOqGxMoe-A"  >
<path style="stroke: rgb(0,0,0); stroke-width: 2; stroke-dasharray: none; stroke-linecap: round; stroke-dashoffset: 0; stroke-linejoin: round; stroke-miterlimit: 10; fill: none; fill-rule: nonzero; opacity: 1;"  transform=" translate(-3.935885, -5.54351)" d="M 3.69187 5.66349 C 4.10625 6.41008 5.65347 8.32541 6.37528 9.18975 L 4.27721 5.12992 L 1.49649 1.89727 C 1.66058 2.47091 3.17389 4.73026 3.69187 5.66349 Z" stroke-linecap="round" />
</g>
<g transform="matrix(1 0 0 1 21.3584362004 14)" id="te4ljANEbes_8rNBW1hN5"  >
<path style="stroke: rgb(0,0,0); stroke-width: 2; stroke-dasharray: none; stroke-linecap: round; stroke-dashoffset: 0; stroke-linejoin: round; stroke-miterlimit: 10; fill: none; fill-rule: nonzero; opacity: 1;"  transform=" translate(-4.31644, -5.015125)" d="M 7.35876 1.0001 C 6.69072 2.10835 5.19105 4.50719 4.53662 5.23652 C 3.71857 6.14818 1.83409 8.63797 1.27412 9.03015" stroke-linecap="round" />
</g>
</svg>