<svg width="28" height="28" viewBox="0 0 28 28" fill="none" xmlns="http://www.w3.org/2000/svg">
<g id="Icon/Volume high">
<path id="Vector 28" d="M1.94423 11.2569L5.23012 10.6156C5.23012 10.6156 8.56064 5.24435 9.31692 5.27159C9.97461 6.20147 11.7296 9.75459 11.7296 13.6108C11.7296 18.6316 10.2622 21.6443 9.31692 22.7284C7.63949 22.7187 5.87103 18.6316 5.87103 18.6316L1.94423 17.8834M1.94423 11.2569C1.14505 11.4128 1.10461 17.0855 1.94423 17.8834M1.94423 11.2569C1.65908 12.2422 1.94423 13.0041 1.94423 14.6393C1.94423 15.9474 1.94423 17.1323 1.94423 17.8834" stroke="black" stroke-width="2" stroke-miterlimit="10" stroke-linecap="round" stroke-linejoin="round"/>
<path id="Vector 29" d="M18.6694 9.55469C18.6694 9.55469 19.7249 11.0365 19.7249 13.8591C19.7249 16.2582 18.6694 18.4457 18.6694 18.4457" stroke="black" stroke-width="2" stroke-miterlimit="10" stroke-linecap="round" stroke-linejoin="round"/>
<path id="Vector 29_2" d="M22.4165 4.89746C23.2507 4.89746 25.6177 7.9317 25.6177 13.7112C25.6177 18.6237 23.9594 23.1028 22.4165 23.1028" stroke="black" stroke-width="2" stroke-miterlimit="10" stroke-linecap="round" stroke-linejoin="round"/>
</g>
</svg>
